<?xml version="1.0" standalone="no"?>
<!DOCTYPE svg PUBLIC "-//W3C//DTD SVG 20010904//EN"
 "http://www.w3.org/TR/2001/REC-SVG-20010904/DTD/svg10.dtd">
<svg version="1.0" xmlns="http://www.w3.org/2000/svg"
 width="500.000000pt" height="500.000000pt" viewBox="0 0 500.000000 500.000000"
 preserveAspectRatio="xMidYMid meet">
<metadata>
Created by potrace 1.14, written by Peter Selinger 2001-2017
</metadata>
<g transform="translate(0.000000,500.000000) scale(0.100000,-0.100000)"
fill="#000000" stroke="none">
<path d="M2711 3865 c-51 -58 -34 -137 35 -170 41 -19 52 -19 97 4 l38 19 89
-51 90 -51 0 -157 0 -157 -134 -76 -134 -76 -124 71 c-67 39 -129 75 -135 81
-9 7 -13 60 -15 176 l-3 167 -153 88 -152 88 -153 -89 -152 -88 -2 -184 -3
-185 143 -81 142 -81 5 -177 5 -176 148 -85 c81 -47 152 -85 159 -85 6 0 57
26 113 59 90 51 104 56 120 45 11 -8 39 -14 63 -14 35 0 49 6 73 29 24 24 29
38 29 76 0 40 -5 52 -34 81 -24 24 -43 34 -65 34 -72 0 -128 -61 -118 -126 5
-32 4 -33 -84 -83 -49 -28 -92 -51 -96 -51 -4 0 -67 34 -140 76 l-133 75 0
159 0 158 131 76 c72 42 135 76 140 76 5 0 73 -36 150 -81 77 -44 144 -79 147
-77 4 2 74 41 155 88 l147 84 0 186 0 185 -98 55 -97 56 -6 48 c-7 66 -41 96
-109 96 -42 0 -51 -4 -79 -35z m129 -25 c58 -58 -31 -149 -92 -93 -22 20 -23
70 -1 95 21 24 68 23 93 -2z m-492 -150 l132 -75 0 -155 0 -156 -134 -77 -135
-78 -135 78 -136 78 1 155 0 155 132 77 c73 42 135 75 138 75 3 -1 65 -36 137
-77z m495 -863 c24 -28 18 -66 -15 -90 -35 -26 -78 -14 -92 24 -27 77 54 127
107 66z"/>
<path d="M1620 2385 l0 -165 25 0 25 0 0 145 0 145 48 0 c27 0 57 -7 70 -16
21 -14 22 -22 22 -145 l0 -129 25 0 25 0 0 133 0 133 -33 32 c-32 31 -36 32
-120 32 l-87 0 0 -165z"/>
<path d="M2380 2505 l0 -45 -95 0 -95 0 0 -120 0 -120 120 0 120 0 0 165 0
165 -25 0 c-23 0 -25 -4 -25 -45z m0 -165 l0 -70 -70 0 -70 0 0 70 0 70 70 0
70 0 0 -70z"/>
<path d="M2910 2455 l0 -95 95 0 95 0 0 -45 0 -45 -95 0 c-95 0 -95 0 -95 -25
l0 -25 115 0 115 0 0 95 0 95 -96 0 -95 0 3 48 3 47 93 3 c84 2 92 4 92 22 0
19 -7 20 -115 20 l-115 0 0 -95z"/>
<path d="M3190 2385 l0 -165 25 0 c24 0 25 2 25 70 l0 70 70 0 70 0 0 -70 c0
-68 1 -70 25 -70 l25 0 0 165 0 165 -25 0 c-24 0 -25 -2 -25 -70 l0 -70 -70 0
-70 0 0 70 c0 68 -1 70 -25 70 l-25 0 0 -165z"/>
<path d="M1900 2340 l0 -120 120 0 120 0 0 120 0 120 -120 0 -120 0 0 -120z
m190 0 l0 -70 -70 0 -70 0 0 70 0 70 70 0 70 0 0 -70z"/>
<path d="M2480 2340 l0 -120 115 0 115 0 0 25 c0 25 0 25 -96 25 -93 0 -95 1
-92 23 3 21 8 22 96 25 l92 3 0 69 0 70 -115 0 -115 0 0 -120z m188 48 c-3
-21 -8 -23 -73 -23 -65 0 -70 2 -73 23 -3 21 -1 22 73 22 74 0 76 -1 73 -22z"/>
<path d="M2770 2175 c0 -20 5 -25 25 -25 20 0 25 5 25 25 0 20 -5 25 -25 25
-20 0 -25 -5 -25 -25z"/>
<path d="M1290 1980 c0 -13 7 -20 20 -20 18 0 20 -7 20 -85 0 -78 -2 -85 -20
-85 -13 0 -20 -7 -20 -20 0 -18 7 -20 55 -20 44 0 55 3 55 16 0 9 -9 18 -20
21 -18 5 -20 14 -20 88 0 74 2 83 20 88 11 3 20 12 20 21 0 13 -11 16 -55 16
-48 0 -55 -2 -55 -20z"/>
<path d="M1650 1980 c0 -16 7 -20 35 -20 l35 0 0 -105 c0 -87 3 -105 15 -105
12 0 15 18 15 104 l0 105 37 3 c27 2 39 8 41 21 3 15 -6 17 -87 17 -84 0 -91
-1 -91 -20z"/>
<path d="M2040 1930 l0 -70 70 0 70 0 0 -35 0 -35 -70 0 c-63 0 -70 -2 -70
-20 0 -19 7 -20 90 -20 l90 0 0 70 0 70 -75 0 -75 0 0 35 0 34 72 3 c60 2 73
6 76 21 3 15 -6 17 -87 17 l-91 0 0 -70z"/>
<path d="M2470 1980 c0 -11 7 -20 15 -20 12 0 15 -18 15 -105 l0 -105 35 0
c28 0 35 4 35 20 0 11 -7 20 -15 20 -12 0 -15 18 -15 105 l0 105 -35 0 c-28 0
-35 -4 -35 -20z"/>
<path d="M2860 1965 c0 -28 -4 -35 -20 -35 -13 0 -20 -7 -20 -20 0 -13 7 -20
20 -20 18 0 20 -7 20 -70 l0 -70 50 0 c43 0 50 3 50 20 0 16 -7 20 -35 20
l-35 0 0 50 0 50 35 0 c28 0 35 4 35 20 0 16 -7 20 -35 20 -33 0 -35 2 -35 35
0 24 -5 35 -15 35 -10 0 -15 -11 -15 -35z"/>
<path d="M3032 1983 c5 -26 38 -29 38 -4 0 15 -6 21 -21 21 -14 0 -19 -5 -17
-17z"/>
<path d="M1430 1840 l0 -90 90 0 90 0 0 90 0 90 -90 0 -90 0 0 -90z m150 0 l0
-50 -55 0 -55 0 0 50 0 50 55 0 55 0 0 -50z"/>
<path d="M2250 1840 l0 -90 90 0 90 0 0 90 0 90 -90 0 -90 0 0 -90z m140 0 l0
-50 -50 0 -50 0 0 50 0 50 50 0 50 0 0 -50z"/>
<path d="M2610 1862 c0 -92 19 -112 108 -112 l62 0 0 90 c0 73 -3 90 -15 90
-12 0 -15 -14 -15 -70 l0 -70 -43 0 c-24 0 -48 5 -55 12 -7 7 -12 38 -12 70 0
45 -3 58 -15 58 -12 0 -15 -14 -15 -68z"/>
<path d="M3000 1910 c0 -11 7 -20 15 -20 12 0 15 -14 15 -70 l0 -70 35 0 c28
0 35 4 35 20 0 11 -7 20 -15 20 -12 0 -15 14 -15 70 l0 70 -35 0 c-28 0 -35
-4 -35 -20z"/>
<path d="M3140 1840 l0 -90 90 0 90 0 0 90 0 90 -90 0 -90 0 0 -90z m140 0 l0
-50 -50 0 -50 0 0 50 0 50 50 0 50 0 0 -50z"/>
<path d="M3350 1840 c0 -83 1 -90 20 -90 18 0 20 7 20 70 l0 70 45 0 c54 0 65
-16 65 -89 0 -39 4 -51 15 -51 12 0 15 14 15 68 0 93 -19 112 -113 112 l-67 0
0 -90z"/>
<path d="M3570 1875 l0 -55 70 0 c56 0 70 -3 70 -15 0 -12 -14 -15 -70 -15
-63 0 -70 -2 -70 -20 0 -18 7 -20 85 -20 l85 0 0 55 0 55 -70 0 c-56 0 -70 3
-70 15 0 12 14 15 70 15 63 0 70 2 70 20 0 18 -7 20 -85 20 l-85 0 0 -55z"/>
<path d="M2197 1472 l-37 -38 40 -39 40 -39 33 32 33 32 194 0 194 0 33 -32
33 -32 40 39 40 39 -40 40 -40 40 -33 -32 -33 -32 -195 0 -195 0 -29 30 c-16
17 -31 30 -35 30 -3 0 -23 -17 -43 -38z m56 -54 c-15 -17 -17 -17 -35 -1 -17
15 -17 17 -1 35 15 17 17 17 35 1 17 -15 17 -17 1 -35z m530 0 c-15 -17 -17
-17 -35 -1 -17 15 -17 17 -1 35 15 17 17 17 35 1 17 -15 17 -17 1 -35z"/>
</g>
</svg>
